<?xml version="1.0" encoding="UTF-8"?> <svg xmlns="http://www.w3.org/2000/svg" width="293" height="191" viewBox="0 0 293 191" fill="none"><path d="M44.2387 141.551C44.6362 141.551 44.835 141.779 44.7496 142.15L44.3241 144.689C44.2387 145.06 43.9838 145.288 43.5863 145.288H29.51L28.7162 149.624H40.5782C40.9757 149.624 41.2025 149.824 41.1171 150.223L40.6916 152.678C40.6343 153.048 40.3514 153.276 39.9539 153.276H28.0919L27.2969 157.783H41.372C41.7976 157.783 41.9683 158.011 41.9121 158.383L41.4574 160.921C41.4012 161.293 41.1452 161.521 40.7477 161.521H22.6999C22.2743 161.521 22.1036 161.293 22.1609 160.921L25.452 142.15C25.5373 141.779 25.7641 141.551 26.1897 141.551H44.2387Z" fill="#231F20"></path><path d="M66.8298 157.698H56.1031L52.6296 163.773C52.432 164.173 52.1479 164.344 51.6931 164.344H48.0045C47.6351 164.344 47.5217 164.059 47.7497 163.717L60.8708 142.121C61.0976 141.722 61.3817 141.55 61.8634 141.55H66.6884C67.1701 141.55 67.3688 141.722 67.4822 142.121L72.4779 160.894C72.5621 161.236 72.3926 161.52 72.0512 161.52H68.4479C67.9651 161.52 67.7383 161.35 67.6529 160.95L66.8298 157.698ZM58.2882 154.046H65.9507L63.7083 145.002L58.2882 154.046Z" fill="#231F20"></path><path d="M89.1146 145.288C87.0148 145.288 86.532 145.659 86.2198 147.427L84.7724 155.644C84.7163 156.015 84.659 156.3 84.659 156.557C84.659 157.555 85.2261 157.783 86.9014 157.783H94.4213C95.3858 157.783 95.8686 157.355 96.0101 156.471L96.4649 154.017H91.5838C91.1582 154.017 90.9875 153.789 91.0448 153.419L91.4704 150.994C91.5545 150.595 91.8106 150.366 92.2081 150.366H100.92C101.345 150.366 101.516 150.595 101.459 150.994L100.38 157.071C99.8133 160.351 99.2451 161.521 94.9883 161.521H83.9213C81.1692 161.521 79.8352 160.493 79.8352 158.24C79.8352 157.841 79.8633 157.413 79.9486 156.957L81.8496 146.116C82.3886 142.978 83.325 141.551 87.4123 141.551H98.4793C101.289 141.551 102.48 142.35 102.48 144.489C102.48 144.946 102.452 145.431 102.339 146.002L102.084 147.313C101.998 147.713 101.742 147.941 101.345 147.941H98.1671C97.7416 147.941 97.5428 147.713 97.6282 147.313L97.7696 146.6C97.7977 146.486 97.7977 146.344 97.7977 146.258C97.7977 145.602 97.4294 145.288 96.6344 145.288H89.1146Z" fill="#231F20"></path><path d="M114.884 157.784H127.825C128.251 157.784 128.42 158.012 128.364 158.383L127.91 160.922C127.853 161.293 127.597 161.521 127.2 161.521H110.287C109.862 161.521 109.691 161.293 109.747 160.922L113.039 142.15C113.125 141.779 113.352 141.551 113.777 141.551H117.097C117.495 141.551 117.722 141.779 117.636 142.15L114.884 157.784Z" fill="#231F20"></path><path d="M157.714 141.551C158.112 141.551 158.311 141.779 158.225 142.15L157.8 144.689C157.714 145.06 157.459 145.288 157.062 145.288H142.986L142.192 149.624H154.054C154.451 149.624 154.678 149.824 154.593 150.223L154.167 152.678C154.11 153.048 153.827 153.276 153.429 153.276H141.568L140.773 157.783H154.848C155.274 157.783 155.444 158.011 155.387 158.383L154.933 160.921C154.877 161.293 154.621 161.521 154.223 161.521H136.175C135.75 161.521 135.579 161.293 135.635 160.921L138.928 142.15C139.013 141.779 139.24 141.551 139.665 141.551H157.714Z" fill="#231F20"></path><path d="M171.338 161.521C170.855 161.521 170.628 161.349 170.543 160.951L166.031 142.178C165.946 141.835 166.145 141.551 166.514 141.551H170.032C170.543 141.551 170.742 141.722 170.827 142.121L174.289 157.841L183.407 142.121C183.634 141.722 183.89 141.551 184.371 141.551H188.089C188.458 141.551 188.543 141.835 188.344 142.178L177.128 160.951C176.929 161.349 176.673 161.521 176.191 161.521H171.338Z" fill="#3E649B"></path><path d="M197.579 160.922C197.522 161.292 197.239 161.521 196.841 161.521H193.521C193.096 161.521 192.925 161.292 192.982 160.922L196.274 142.15C196.359 141.779 196.585 141.551 197.012 141.551H200.331C200.729 141.551 200.957 141.779 200.871 142.15L197.579 160.922Z" fill="#3E649B"></path><path d="M230.016 141.551C230.414 141.551 230.612 141.779 230.527 142.15L230.101 144.689C230.016 145.06 229.761 145.288 229.364 145.288H215.287L214.494 149.624H226.356C226.753 149.624 226.98 149.824 226.895 150.223L226.469 152.678C226.412 153.048 226.129 153.276 225.731 153.276H213.869L213.074 157.783H227.149C227.576 157.783 227.746 158.011 227.688 158.383L227.235 160.921C227.179 161.293 226.923 161.521 226.525 161.521H208.477C208.052 161.521 207.881 161.293 207.937 160.921L211.229 142.15C211.315 141.779 211.542 141.551 211.967 141.551H230.016Z" fill="#3E649B"></path><path d="M253.407 161.521C252.954 161.521 252.755 161.321 252.698 160.921L251.563 146.857L245.49 160.921C245.348 161.321 245.065 161.521 244.61 161.521H239.332C238.907 161.521 238.651 161.321 238.623 160.921L236.692 142.15C236.664 141.779 236.863 141.551 237.261 141.551H240.694C241.148 141.551 241.375 141.751 241.375 142.15L242.737 157.755L249.407 142.15C249.576 141.751 249.86 141.551 250.314 141.551H254.6C255.054 141.551 255.28 141.751 255.308 142.15L256.472 157.783L264.843 138.508C265.013 138.108 265.326 137.908 265.779 137.908H269.298C269.668 137.908 269.809 138.136 269.638 138.508L259.565 160.921C259.424 161.321 259.14 161.521 258.686 161.521H253.407Z" fill="#3E649B"></path><path d="M266.292 157.309V157.771H264.992V161.186H264.464V157.771H263.164V157.309H266.292Z" fill="#3E649B"></path><path d="M266.76 157.309H267.508L268.617 160.587L269.719 157.309H270.462V161.187H269.963V158.898C269.963 158.819 269.965 158.688 269.968 158.504C269.972 158.321 269.973 158.125 269.973 157.916L268.872 161.186H268.354L267.242 157.916V158.035C267.242 158.129 267.245 158.274 267.251 158.468C267.256 158.663 267.259 158.806 267.259 158.897V161.186H266.76V157.308L266.76 157.309Z" fill="#3E649B"></path><path d="M180.578 126.064L166.193 104.829C188.125 117.194 210.306 105.419 210.34 105.443C208.175 103.991 200.535 100.514 189.031 95.5829C204.303 97.3546 227.406 97.109 231.713 88.6444L202.639 80.0845C233.866 84.6101 251.975 79.297 256.966 64.1401H209.098C247.527 62.175 267.396 51.5677 268.708 32.3213L158.174 66.8986C157.685 69.0577 157.161 72.5677 157.031 77.9431C156.815 86.8596 149.681 92.3372 149.681 92.3372C148.858 100.572 147.463 102.252 146.721 103.584C146.261 104.407 145.655 104.982 145.448 104.982C145.24 104.982 144.633 104.407 144.175 103.584C143.431 102.253 142.038 100.572 141.214 92.3372C141.214 92.3372 134.081 86.8596 133.865 77.9431C133.735 72.5677 133.211 69.0588 132.721 66.8986L22.1873 32.3213C23.4996 51.5677 43.3684 62.1738 81.797 64.1401H33.9288C38.9198 79.2959 57.0308 84.6101 88.2565 80.0845L59.1826 88.6444C63.4896 97.1084 86.5934 97.3546 101.864 95.5829C90.3609 100.513 82.7212 103.991 80.5548 105.443C80.5893 105.419 102.771 117.194 124.702 104.829L110.317 126.064H180.578Z" fill="#3E649B"></path></svg> 